<?xml version="1.0" standalone="no"?>
<svg xmlns="http://www.w3.org/2000/svg" viewBox="0 0 98 70" width="98" height="70"><g fill="#d6af69" color="#d6af69" transform="translate(31.472 0) scale(0.625) "><svg width="56.0" height="46.0" x="0.0" y="0.0" viewBox="0 0 56 46"><path fill="currentColor" fill-rule="evenodd" d="M53.247 2.997c-.56.301-1.417.38-2.033.56a51.558 51.558 0 0 0-3.975 1.382c-2.484.965-4.892 2.123-7.243 3.383-2.714 1.454-5.357 3.052-7.944 4.735a.25.25 0 0 0-.157.108c-.543.356-1.091.712-1.629 1.074 7.396-5.7 15.719-10.055 24.61-13.01-.055.646-1.285 1.575-1.629 1.768M37.8 19.39c1.454 1.792 3.234 3.505 3.993 5.742.338.995.404 1.973.247 2.883-4.204-4.234-9.04-8.034-9.614-14.379.802-.488 1.598-.983 2.407-1.465-.175 2.792 1.211 5.066 2.967 7.22m1.411 12.78c-.801-2.183-3.305-4.047-5.506-4.572-.133-.03-.253.073-.278.193-2.159.157-2.623 2.75-1.912 4.457.724 1.75 2.334 3.197 4.18 3.68-1.044 1.303-2.195 2.473-3.601 3.402-.32.205-.713.458-1.14.711-.645-7.027-3.559-13.986-7.817-19.584a68.825 68.825 0 0 1 2.63-2.485c.295-.272.603-.531.905-.796 1.724-1.05 3.444-2.117 5.162-3.179.079 6.388 5.779 10.724 9.94 14.868.012.012.03.018.042.03-.445 1.303-1.362 2.443-2.605 3.275m-11.905 9.18c-3.27-.2-2.865-3.782-5.483-4.891a.255.255 0 0 0-.163-.012c-1.05-.296-2.063.5-2.407 1.556-.53 1.61.03 3.649.778 5.157-1.417 1.502-3.281 1.743-5.301 1.586 1.2-3.812.187-7.95-2.491-10.898 3.034-4.578 6.423-8.879 10.331-12.824 4.114 5.947 6.526 12.22 7.89 19.307-1.044.572-2.226 1.073-3.154 1.02m-13.21 3.334c-2.677-.295-5.554-1.11-7.955-.488a122.735 122.735 0 0 1 5.664-9.681c2.46 2.895 3.202 6.49 2.292 10.17m-8.42-.978c-.567-2.31-2.618-3.721-3.62-5.603 2.075-.574 4.09-.549 6.146.078a60.757 60.757 0 0 0-2.527 5.525m-3.799-5.99c-.38-.874-.519-1.857-.175-3.075 1.99.187 5.097-.26 4.705-2.938-.012-.102-.09-.132-.169-.127-.802-1.906-3.685-2.207-5.042-.67-.199-1.368-.283-2.629-.223-3.896 4.548-.325 8.595.44 12.768 2.244a68.384 68.384 0 0 0-5.247 8.378c-.03-.018-.054-.036-.09-.049a9.86 9.86 0 0 0-6.478.103.148.148 0 0 0-.049.03M1.51 23.63c.018.018.024.036.048.054 1.9 1.55 5.422 1.996 7.6.833.012-.006.018-.024.03-.03 1.285-.88.796-2.63-.302-3.468-1.755-1.34-4.517-1.442-6.616-1.147a12.749 12.749 0 0 1 .537-4.24.213.213 0 0 0 .157.073c4.047.193 7.901.989 11.52 2.882 1.472.773 2.943 2.335 4.415 2.92.717.289.567.416 1.037.331a77.56 77.56 0 0 0-5.772 6.84c-4.004-2.13-8.697-2.81-13.16-2.105.071-.959.234-1.923.506-2.943M5.212 11.11c.018.018.03.036.049.048 1.99 1.243 4.3 2.558 6.526 3.3 1.188.398 2.382.434 3.348-.224.042.133.163.235.313.169 1.93-.796 1.7-3.384.549-4.76-1.67-1.99-4.753-2.761-7.388-2.786 1.9-.977 3.42-2.527 5.603-3.172.066-.019.139-.031.21-.055a.24.24 0 0 0 .128.055c6.098 1.194 10.977 4.873 14.125 10.174a80.658 80.658 0 0 0-8.185 7.383.412.412 0 0 0-.434-.224c-.893.14-3.106-1.99-3.872-2.443a25.078 25.078 0 0 0-4.06-1.894 23.5 23.5 0 0 0-9.161-1.429.17.17 0 0 1-.054.012c.494-1.452 1.266-2.82 2.303-4.154m19.162-7.732c1.906.615 3.3 1.87 4.307 3.558.585.977.947 2.093 1.827 2.865.79.7 1.66.995 2.54.838a91.368 91.368 0 0 0-3.752 2.733C26.486 8.177 21.51 4.6 15.798 3.292c2.786-.61 5.959-.76 8.576.085M55.515.445c-.066-.289-.32-.53-.687-.416-7.105 2.184-14.078 5.513-20.52 9.76a.385.385 0 0 0-.53-.224c-.948.44-3.275-1.502-3.8-2.268-.447-.657-.688-1.411-1.17-2.051a7.742 7.742 0 0 0-1.72-1.659c-1.863-1.29-4.161-1.743-6.393-1.767-2.365-.03-4.934.277-7.19 1.013-2.442.802-4.083 2.63-6.35 3.722-.254.12-.254.428-.115.627a.308.308 0 0 0 .302.362c2.466.127 11.23 2.08 8.263 5.917h-.03c-3.239 1.544-7.05-1.803-10.024-2.986-.157-.066-.284-.006-.368.097-.09-.049-.205-.043-.314.054-2.563 2.262-3.83 5.886-3.456 9.27.03.302.314.434.543.398.042.115.133.211.284.206 1.502-.109 8.999.392 6.55 3.528a.386.386 0 0 0-.06.157c-1.11.024-2.208.139-3.317-.018-1.249-.18-2.316-.712-3.492-1.104-.224-.078-.435.121-.47.326-.11-.127-.332-.157-.423.03-1.122 2.328-1.405 5.361-.452 7.798.085.2.26.26.404.217.084.133.295.193.44.067.742-.645 1.61-1.073 2.624-.826.941.229 1.412.886 1.864 1.664-.585 1.544-2.678 1.568-4.162 1.514a.282.282 0 0 0-.241-.006h-.024c-.326-.018-.435.277-.338.513-2.286 4.258 3.468 6.284 3.884 10.108.042.41.573.483.73.206a.294.294 0 0 0 .139-.06.188.188 0 0 0 .156.06c3.517-.326 6.665 1.025 10.103.965 1.936-.03 3.613-.712 4.777-2.268.217-.284-.108-.634-.404-.621-.56-1.828-1.604-6.737 1.34-5.561.066.03.132.024.186 0 2.54 2.183 1.14 5.905 5.494 5.03 3.667-.742 6.81-2.961 9.017-5.935a.325.325 0 0 0 .06-.23c.212-.078.182-.433-.047-.523-1.4-.555-2.666-1.225-3.57-2.48-1.074-1.477-1.569-3.908.704-4.553a.34.34 0 0 0 .26-.278c.887.447 1.725.93 2.48 1.605.892.802 1.434 1.76 2.129 2.702.036.054.09.085.138.108 0 .2.211.385.447.278 2.96-1.327 4.529-4.41 3.69-7.588-1.365-5.15-7.764-7.835-7.016-13.68 0-.03-.006-.048-.006-.071 3.149-1.852 6.363-3.589 9.747-5.019a57.197 57.197 0 0 1 5.362-1.99c1.194-.374 2.919-.52 3.98-1.219 1.177-.771 1.412-1.821.592-2.9M29.447 26.193c-1.622-.634-1.677-2.624-1.17-4.036.88.23 1.592.598 2.075 1.43.416.712.897 3.311-.905 2.606m-.905-4.663c.042-.205-.205-.362-.386-.21-1.037.874-1.133 2.503-.681 3.703.41 1.086 1.664 2.473 2.98 2.074 1.26-.385 1.242-2.255.886-3.245-.416-1.158-1.52-2.25-2.799-2.322m-9.307-7.859c0 .006.006.006.006.006.598.236 1.189.483 1.72.839.27.18.56.416.705.718.235.494-.199.73-.639.657-.875-.15-2.498-1.237-1.792-2.22m2.069 2.956c.899-.012 1.375-.874.995-1.665-.495-1.03-1.852-1.61-2.877-1.924-.115-.036-.206-.018-.272.037-.018.006-.036.006-.048.018-.742.482-.796 1.453-.332 2.159.501.76 1.617 1.387 2.534 1.375m-2.84 17.069c-.99-.64-1.02-1.984-.477-2.938.193.073.47-.084.374-.314.132.32.615.573.85.815.32.325.64.706.742 1.164.205.929-.549 1.882-1.49 1.273m.14-3.806c-.043-.145-.206-.26-.357-.163-.06.042-.114.09-.168.132a.508.508 0 0 0-.296.26 2.874 2.874 0 0 0-.658 2.95c.392 1.146 1.81 2.183 2.914 1.248 1.14-.966.693-2.552-.211-3.48-.26-.266-.749-.772-1.225-.947m-4.518-6.261c-.018 1.055-1.285.814-1.894.459-.705-.404-1.097-1.026-1.496-1.701 1.177-.157 3.415-.568 3.39 1.242m-1.743 1.17c.815.356 1.937.296 2.292-.657.29-.754-.085-1.66-.7-2.135-.946-.742-2.406-.52-3.45-.127-.18.066-.228.302-.138.434-.042.049-.066.103-.048.169.229 1.002 1.115 1.912 2.044 2.316m-3.667 6.756a.728.728 0 0 1 .682-.157c.338.085.615.398.403.741-.174.278-.64.447-.94.296-.35-.168-.35-.603-.145-.88m-.362 1.2c.507.495 1.4.314 1.834-.187.477-.555.235-1.34-.404-1.629-.537-.241-1.544-.145-1.646.585 0 .03 0 .054.006.085-.158.368-.103.832.21 1.146"></path></svg></g><line x1="32.52199999999999" y1="34.75" x2="65.422" y2="34.75" stroke="#154e2f" stroke-linecap="round"></line><path fill="#154e2f" fill-rule="nonzero" d="M15.72 6.70L15.72 6.70Q15.72 8.18 14.90 9.35Q14.09 10.51 12.67 11.28L12.67 11.28Q13.58 11.90 14.12 12.80Q14.66 13.70 14.66 14.78L14.66 14.78Q14.66 16.08 13.88 17.34Q13.10 18.60 11.81 19.57Q10.51 20.54 8.86 21.14Q7.20 21.74 5.47 21.74L5.47 21.74Q3.60 21.74 2.20 21.04Q0.79 20.33 0 19.03L0 19.03Q0.24 18.31 0.64 17.24Q1.03 16.18 1.51 14.99Q1.99 13.80 2.48 12.62Q2.98 11.45 3.41 10.51L3.41 10.51Q4.32 8.47 5.04 7.13Q5.76 5.78 6.36 4.99L6.36 4.99Q5.04 5.40 3.96 5.92Q2.88 6.43 2.38 6.91L2.38 6.91Q2.16 6.77 1.93 6.48Q1.70 6.19 1.50 5.84Q1.30 5.50 1.16 5.14Q1.03 4.78 1.01 4.49L1.01 4.49Q1.63 4.06 2.63 3.66Q3.62 3.26 4.80 2.98Q5.98 2.69 7.21 2.52Q8.45 2.35 9.58 2.35L9.58 2.35Q12.46 2.35 14.09 3.50Q15.72 4.66 15.72 6.70ZM6.58 12.43L6.58 12.43Q6.12 12.22 5.74 11.78L5.74 11.78Q5.18 13.01 4.69 14.18Q4.20 15.36 3.82 16.37Q3.43 17.38 3.19 18.12Q2.95 18.86 2.93 19.20L2.93 19.20Q3.26 19.39 3.73 19.49Q4.20 19.58 4.90 19.58L4.90 19.58Q6.53 19.58 8.02 19.13Q9.50 18.67 10.63 17.89Q11.76 17.11 12.43 16.10Q13.10 15.10 13.10 13.99L13.10 13.99Q13.10 12.41 11.74 11.71L11.74 11.71Q9.86 12.48 7.51 12.48L7.51 12.48Q7.18 12.48 7.00 12.48Q6.82 12.48 6.58 12.43ZM11.23 4.10L11.23 4.10Q10.73 4.10 10.16 4.16Q9.60 4.22 8.98 4.34L8.98 4.34Q9.07 4.44 9.13 4.55Q9.19 4.66 9.24 4.78L9.24 4.78Q9.02 5.06 8.71 5.62Q8.40 6.17 8.02 6.90Q7.63 7.63 7.21 8.52Q6.79 9.41 6.36 10.34L6.36 10.34Q6.77 10.25 7.36 10.19Q7.94 10.13 8.52 10.13L8.52 10.13Q8.83 10.13 9.13 10.15Q9.43 10.18 9.72 10.22L9.72 10.22Q10.87 10.03 11.80 9.66Q12.72 9.29 13.39 8.80Q14.06 8.30 14.42 7.70Q14.78 7.10 14.78 6.43L14.78 6.43Q14.78 5.28 13.87 4.69Q12.96 4.10 11.23 4.10ZM16.08 18.38L16.08 18.38Q16.08 17.33 16.58 15.42Q17.09 13.51 18 10.97L18 10.97Q19.49 6.91 20.80 4.21Q22.10 1.51 23.35 0L23.35 0Q23.64 0.05 24.06 0.24Q24.48 0.43 24.89 0.66Q25.30 0.89 25.62 1.13Q25.94 1.37 26.04 1.51L26.04 1.51Q24.17 3.72 22.75 6.26Q21.34 8.81 20.16 12.10L20.16 12.10Q19.15 14.93 18.62 17.20Q18.10 19.46 18.10 20.98L18.10 20.98Q18.10 21.38 18.10 21.48Q18.10 21.58 18.12 21.67L18.12 21.67Q17.78 21.62 17.54 21.50Q17.30 21.38 17.23 21.22L17.23 21.22Q17.18 21.10 16.97 20.87Q16.75 20.64 16.58 20.52L16.58 20.52Q16.37 20.38 16.22 19.76Q16.08 19.15 16.08 18.38ZM24.50 20.76L24.50 20.76Q23.14 20.62 22.32 19.56Q21.50 18.50 21.50 16.87L21.50 16.87Q21.50 15.91 21.79 14.88Q22.08 13.85 22.61 12.88Q23.14 11.90 23.86 11.04Q24.58 10.18 25.42 9.55L25.42 9.55Q26.74 8.57 27.89 8.57L27.89 8.57Q28.66 8.98 29.40 10.27L29.40 10.27Q29.52 10.27 29.62 10.26Q29.71 10.25 29.83 10.25L29.83 10.25Q31.10 10.25 31.10 12.50L31.10 12.50Q31.10 14.02 30.61 15.37Q30.12 16.73 29.24 17.83Q28.37 18.94 27.16 19.69Q25.94 20.45 24.50 20.76ZM25.73 13.20L25.73 13.20Q25.32 13.75 24.96 14.40Q24.60 15.05 24.34 15.71Q24.07 16.37 23.93 16.98Q23.78 17.59 23.78 18.07L23.78 18.07Q23.78 18.65 23.98 19.18Q24.17 19.70 24.41 19.78L24.41 19.78Q25.49 19.54 26.39 18.88Q27.29 18.22 27.95 17.23Q28.61 16.25 28.98 15.00Q29.35 13.75 29.35 12.34L29.35 12.34Q29.35 11.71 29.28 11.35Q29.21 10.99 29.04 10.73L29.04 10.73Q27.98 11.04 27.16 11.74Q26.33 12.43 25.73 13.20ZM27.41 27.07L27.41 27.07Q27.41 26.93 27.50 26.81Q27.60 26.69 27.72 26.57L27.72 26.57Q28.01 26.83 28.21 26.98Q28.42 27.12 28.60 27.22Q28.78 27.31 28.97 27.34Q29.16 27.36 29.42 27.36L29.42 27.36Q30.67 27.36 31.80 26.70Q32.93 26.04 33.92 24.79Q34.92 23.54 35.74 21.74Q36.55 19.94 37.18 17.66L37.18 17.66Q36.89 17.95 36.47 18.30Q36.05 18.65 35.59 18.96Q35.14 19.27 34.69 19.54Q34.25 19.80 33.94 19.92L33.94 19.92Q33.53 19.85 33.18 19.57Q32.83 19.30 32.57 18.89Q32.30 18.48 32.16 17.96Q32.02 17.45 32.02 16.87L32.02 16.87Q32.02 15.94 32.36 14.95Q32.71 13.97 33.29 13.02Q33.86 12.07 34.64 11.23Q35.42 10.39 36.30 9.77Q37.18 9.14 38.08 8.77Q38.98 8.40 39.84 8.40L39.84 8.40Q40.68 8.40 41.10 8.75Q41.52 9.10 41.71 9.94L41.71 9.94Q41.45 9.79 41.04 9.79L41.04 9.79Q40.46 9.79 39.71 10.25Q38.95 10.70 38.17 11.44Q37.39 12.17 36.62 13.12Q35.86 14.06 35.27 15.05Q34.68 16.03 34.31 16.97Q33.94 17.90 33.94 18.65L33.94 18.65Q33.94 18.82 33.96 18.85Q33.98 18.89 34.03 18.89L34.03 18.89Q34.25 18.89 34.62 18.65Q34.99 18.41 35.46 18.04Q35.93 17.66 36.43 17.17Q36.94 16.68 37.39 16.18L37.39 16.18Q38.42 15.02 39.28 13.60Q40.13 12.17 40.63 10.82L40.63 10.82Q41.28 10.87 41.78 11.04Q42.29 11.21 42.48 11.40L42.48 11.40Q41.66 13.27 41.17 14.54Q40.68 15.82 40.32 16.80L40.32 16.80Q39.67 18.53 39.11 19.96Q38.54 21.38 37.96 22.60Q37.37 23.81 36.68 24.85Q36 25.90 35.14 26.86L35.14 26.86Q34.73 27.31 34.21 27.66Q33.70 28.01 33.16 28.25Q32.62 28.49 32.10 28.61Q31.58 28.73 31.15 28.73L31.15 28.73Q30.58 28.73 29.98 28.60Q29.38 28.46 28.86 28.24Q28.34 28.01 27.96 27.71Q27.58 27.41 27.41 27.07ZM58.46 3.74L58.46 3.74Q58.54 4.15 58.57 4.31Q58.61 4.46 58.61 4.73L58.61 4.73Q58.61 5.52 58.26 6.20Q57.91 6.89 57.31 7.18L57.31 7.18Q56.83 6.53 56.14 6.06Q55.44 5.59 54.61 5.29Q53.78 4.99 52.90 4.85Q52.01 4.70 51.17 4.70L51.17 4.70Q50.33 4.70 49.60 4.84Q48.86 4.97 48.30 5.20Q47.74 5.42 47.41 5.76Q47.09 6.10 47.09 6.53L47.09 6.53Q47.16 7.06 47.74 7.60Q48.31 8.14 49.15 8.65Q49.99 9.17 51.01 9.67Q52.03 10.18 53.02 10.63L53.02 10.63Q54.24 11.21 55.13 11.70Q56.02 12.19 56.59 12.78Q57.17 13.37 57.46 14.11Q57.74 14.86 57.74 15.91L57.74 15.91Q57.74 17.14 57.34 18.20Q56.93 19.27 56.15 20.06Q55.37 20.86 54.26 21.30Q53.16 21.74 51.79 21.74L51.79 21.74Q50.45 21.74 48.89 21.34Q47.33 20.93 45.97 20.22Q44.62 19.51 43.72 18.59Q42.82 17.66 42.82 16.63L42.82 16.63Q42.82 16.15 43.09 15.41Q43.37 14.66 44.09 13.85L44.09 13.85Q44.16 14.57 44.87 15.55Q45.58 16.54 46.99 17.38L46.99 17.38Q48.31 18.14 49.72 18.49Q51.12 18.84 52.34 18.84L52.34 18.84Q53.69 18.84 54.53 18.50Q55.37 18.17 55.85 17.70Q56.33 17.23 56.52 16.75Q56.71 16.27 56.74 15.98L56.74 15.98Q56.71 15.50 56.29 15.06Q55.87 14.62 55.16 14.20Q54.46 13.78 53.52 13.34Q52.58 12.91 51.58 12.48L51.58 12.48Q50.06 11.81 48.97 11.22Q47.88 10.63 47.17 10.02Q46.46 9.41 46.14 8.74Q45.82 8.06 45.82 7.20L45.82 7.20Q45.82 5.86 46.63 4.66Q47.45 3.46 48.98 2.83L48.98 2.83Q49.75 2.50 50.63 2.35Q51.50 2.21 52.34 2.21L52.34 2.21Q53.93 2.21 55.44 2.64Q56.95 3.07 58.46 3.74ZM61.75 10.73L60.38 10.73Q60.26 10.58 60.17 10.12Q60.07 9.65 60.07 9.31L60.07 9.31Q60.70 9.36 61.27 9.40Q61.85 9.43 62.33 9.46L62.33 9.46Q62.69 8.74 63.11 8.03Q63.53 7.32 63.92 6.73Q64.32 6.14 64.67 5.74Q65.02 5.33 65.21 5.21L65.21 5.21Q65.45 5.21 65.82 5.29Q66.19 5.38 66.58 5.51Q66.96 5.64 67.27 5.78Q67.58 5.93 67.70 6.07L67.70 6.07Q66.98 6.98 66.47 7.76Q65.95 8.54 65.35 9.55L65.35 9.55Q65.83 9.55 66.32 9.53Q66.82 9.50 67.32 9.46L67.32 9.46Q67.44 9.58 67.51 9.76Q67.58 9.94 67.58 10.13L67.58 10.13Q66.41 10.56 64.73 10.61L64.73 10.61Q64.13 11.76 63.66 12.90Q63.19 14.04 62.87 15.10Q62.54 16.15 62.36 17.09Q62.18 18.02 62.18 18.77L62.18 18.77Q62.18 19.82 62.98 19.94L62.98 19.94Q63.70 19.85 64.34 19.58Q64.99 19.32 65.50 18.91L65.50 18.91Q65.64 19.13 65.66 19.27L65.66 19.27Q65.52 19.49 65.17 19.78Q64.82 20.06 64.42 20.34Q64.01 20.62 63.62 20.81Q63.24 21 63.05 21.02L63.05 21.02Q62.45 21 61.85 20.76Q61.25 20.52 60.76 20.16Q60.26 19.80 59.95 19.36Q59.64 18.91 59.64 18.48L59.64 18.48Q59.64 17.90 59.80 17.03Q59.95 16.15 60.24 15.12Q60.53 14.09 60.91 12.96Q61.30 11.83 61.75 10.73L61.75 10.73ZM75.70 10.22L75.70 10.22Q75.94 10.22 76.26 10.31Q76.58 10.39 76.85 10.52Q77.11 10.66 77.29 10.80Q77.47 10.94 77.47 11.06L77.47 11.06Q76.99 12.07 76.58 13.09Q76.18 14.11 75.89 15.05Q75.60 15.98 75.44 16.80Q75.29 17.62 75.29 18.22L75.29 18.22Q75.29 18.89 75.43 19.33Q75.58 19.78 75.91 19.97L75.91 19.97Q75.62 20.16 75.17 20.28Q74.71 20.40 74.35 20.40L74.35 20.40Q73.06 20.40 73.06 18.62L73.06 18.62Q73.06 17.26 73.97 14.88L73.97 14.88Q73.49 15.98 72.86 16.96Q72.24 17.93 71.59 18.67Q70.94 19.42 70.28 19.88Q69.62 20.35 69.07 20.45L69.07 20.45Q68.18 20.40 67.63 19.60Q67.08 18.79 67.08 17.54L67.08 17.54Q67.08 16.20 67.66 14.71Q68.23 13.22 69.13 11.95Q70.03 10.68 71.09 9.83Q72.14 8.98 73.13 8.93L73.13 8.93Q73.37 9.00 73.67 9.22Q73.97 9.43 74.24 9.72Q74.52 10.01 74.71 10.31Q74.90 10.61 74.93 10.82L74.93 10.82Q73.97 10.97 72.95 11.76Q71.93 12.55 71.10 13.67Q70.27 14.78 69.74 16.06Q69.22 17.33 69.22 18.43L69.22 18.43Q69.22 18.89 69.55 19.01L69.55 19.01Q70.25 18.86 71.16 17.82Q72.07 16.78 73.37 14.59L73.37 14.59Q73.61 14.16 73.91 13.63Q74.21 13.10 74.52 12.53Q74.83 11.95 75.13 11.36Q75.43 10.78 75.70 10.22ZM73.70 27.07L73.70 27.07Q73.70 26.93 73.80 26.81Q73.90 26.69 74.02 26.57L74.02 26.57Q74.30 26.83 74.51 26.98Q74.71 27.12 74.89 27.22Q75.07 27.31 75.26 27.34Q75.46 27.36 75.72 27.36L75.72 27.36Q76.97 27.36 78.10 26.70Q79.22 26.04 80.22 24.79Q81.22 23.54 82.03 21.74Q82.85 19.94 83.47 17.66L83.47 17.66Q83.18 17.95 82.76 18.30Q82.34 18.65 81.89 18.96Q81.43 19.27 80.99 19.54Q80.54 19.80 80.23 19.92L80.23 19.92Q79.82 19.85 79.48 19.57Q79.13 19.30 78.86 18.89Q78.60 18.48 78.46 17.96Q78.31 17.45 78.31 16.87L78.31 16.87Q78.31 15.94 78.66 14.95Q79.01 13.97 79.58 13.02Q80.16 12.07 80.94 11.23Q81.72 10.39 82.60 9.77Q83.47 9.14 84.37 8.77Q85.27 8.40 86.14 8.40L86.14 8.40Q86.98 8.40 87.40 8.75Q87.82 9.10 88.01 9.94L88.01 9.94Q87.74 9.79 87.34 9.79L87.34 9.79Q86.76 9.79 86.00 10.25Q85.25 10.70 84.47 11.44Q83.69 12.17 82.92 13.12Q82.15 14.06 81.56 15.05Q80.98 16.03 80.60 16.97Q80.23 17.90 80.23 18.65L80.23 18.65Q80.23 18.82 80.26 18.85Q80.28 18.89 80.33 18.89L80.33 18.89Q80.54 18.89 80.92 18.65Q81.29 18.41 81.76 18.04Q82.22 17.66 82.73 17.17Q83.23 16.68 83.69 16.18L83.69 16.18Q84.72 15.02 85.57 13.60Q86.42 12.17 86.93 10.82L86.93 10.82Q87.58 10.87 88.08 11.04Q88.58 11.21 88.78 11.40L88.78 11.40Q87.96 13.27 87.47 14.54Q86.98 15.82 86.62 16.80L86.62 16.80Q85.97 18.53 85.40 19.96Q84.84 21.38 84.25 22.60Q83.66 23.81 82.98 24.85Q82.30 25.90 81.43 26.86L81.43 26.86Q81.02 27.31 80.51 27.66Q79.99 28.01 79.45 28.25Q78.91 28.49 78.40 28.61Q77.88 28.73 77.45 28.73L77.45 28.73Q76.87 28.73 76.27 28.60Q75.67 28.46 75.16 28.24Q74.64 28.01 74.26 27.71Q73.87 27.41 73.70 27.07ZM97.94 9.98L97.94 9.98Q97.85 11.47 97.42 12.54Q96.98 13.61 96.18 14.41Q95.38 15.22 94.22 15.86Q93.07 16.51 91.54 17.11L91.54 17.11Q91.54 17.26 91.52 17.41Q91.51 17.57 91.51 17.74L91.51 17.74Q91.51 18.05 91.56 18.38Q91.61 18.72 91.73 19.01Q91.85 19.30 92.06 19.48Q92.28 19.66 92.62 19.66L92.62 19.66Q93.26 19.66 93.89 19.37Q94.51 19.08 95.08 18.66Q95.64 18.24 96.13 17.75Q96.62 17.26 97.01 16.85L97.01 16.85Q97.25 17.06 97.42 17.26L97.42 17.26Q96.34 18.70 95.05 19.64Q93.77 20.59 92.62 20.86L92.62 20.86Q90.96 20.66 90.04 19.64Q89.11 18.62 89.11 17.18L89.11 17.18Q89.11 16.20 89.39 15.18Q89.66 14.16 90.16 13.21Q90.65 12.26 91.31 11.42Q91.97 10.58 92.72 9.96Q93.48 9.34 94.28 8.98Q95.09 8.62 95.88 8.62L95.88 8.62Q96.98 8.76 97.94 9.98ZM96.29 10.78L96.29 10.78Q95.64 10.87 94.94 11.30Q94.25 11.74 93.64 12.46Q93.02 13.18 92.52 14.14Q92.02 15.10 91.73 16.20L91.73 16.20Q93.65 15.24 94.92 13.84Q96.19 12.43 96.29 10.78Z" transform="translate(0, 40.75)"></path></svg>